<svg xmlns="http://www.w3.org/2000/svg" xmlns:xlink="http://www.w3.org/1999/xlink" width="100" zoomAndPan="magnify" viewBox="0 0 75 74.999997" height="100" preserveAspectRatio="xMidYMid meet" version="1.0"><path fill="#ba855a" d="M 66.929688 71.671875 L 8.066406 71.671875 C 6.90625 71.671875 5.871094 72.449219 5.546875 73.5625 L 5.132812 75 L 69.863281 75 L 69.445312 73.5625 C 69.121094 72.449219 68.085938 71.671875 66.929688 71.671875 Z M 66.929688 71.671875 " fill-opacity="1" fill-rule="nonzero"/><path fill="#ba855a" d="M 35.523438 11.441406 L 39.472656 11.441406 L 39.472656 13.511719 L 35.523438 13.511719 Z M 35.523438 11.441406 " fill-opacity="1" fill-rule="nonzero"/><path fill="#ba855a" d="M 39.8125 10.214844 C 40.792969 9.136719 41.378906 7.46875 41.378906 5.679688 C 41.378906 2.546875 39.636719 0 37.496094 0 C 35.359375 0 33.617188 2.546875 33.617188 5.679688 C 33.617188 7.464844 34.203125 9.132812 35.183594 10.214844 Z M 39.8125 10.214844 " fill-opacity="1" fill-rule="nonzero"/><path fill="#ba855a" d="M 35.523438 14.738281 L 39.472656 14.738281 L 39.472656 62.292969 L 35.523438 62.292969 Z M 35.523438 14.738281 " fill-opacity="1" fill-rule="nonzero"/><path fill="#ba855a" d="M 21.1875 67.132812 C 20.046875 67.132812 19.027344 67.898438 18.707031 68.992188 L 18.285156 70.441406 L 56.710938 70.441406 L 56.289062 68.992188 C 55.96875 67.894531 54.949219 67.132812 53.808594 67.132812 Z M 21.1875 67.132812 " fill-opacity="1" fill-rule="nonzero"/><path fill="#ba855a" d="M 34.910156 63.523438 L 27.996094 63.523438 L 27.996094 65.902344 L 47 65.902344 L 47 63.523438 Z M 34.910156 63.523438 " fill-opacity="1" fill-rule="nonzero"/><path fill="#ba855a" d="M 26.25 45.964844 L 23.253906 45.964844 L 16.726562 20.402344 C 17.261719 20.496094 17.800781 20.550781 18.332031 20.550781 C 20.828125 20.550781 22.753906 19.808594 24.613281 19.085938 C 26.089844 18.515625 27.488281 17.972656 28.972656 17.925781 C 31.164062 17.851562 33.152344 18.820312 34.292969 19.523438 L 34.292969 14.546875 C 33.382812 14.238281 30.640625 13.421875 28.183594 13.839844 C 26.90625 14.058594 25.667969 14.722656 24.355469 15.429688 C 22.523438 16.414062 20.628906 17.429688 18.332031 17.429688 C 15.679688 17.429688 14.207031 16.5 13.484375 15.828125 C 13.234375 16.109375 12.945312 16.355469 12.609375 16.546875 C 12.316406 16.71875 11.941406 16.613281 11.769531 16.320312 C 11.601562 16.027344 11.703125 15.652344 12 15.480469 C 12.707031 15.074219 13.148438 14.316406 13.148438 13.5 C 13.148438 12.242188 12.125 11.21875 10.867188 11.21875 C 9.609375 11.21875 8.585938 12.242188 8.585938 13.5 C 8.585938 14.707031 9.289062 15.976562 10.398438 17.101562 L 3.027344 45.964844 L 0.03125 45.964844 C 0.511719 50.441406 6.207031 53.984375 13.140625 53.984375 C 20.074219 53.984375 25.769531 50.441406 26.25 45.964844 Z M 21.980469 45.964844 L 13.753906 45.964844 L 13.753906 19.433594 C 14.277344 19.679688 14.8125 19.890625 15.363281 20.0625 Z M 12.527344 18.777344 L 12.527344 45.964844 L 4.300781 45.964844 L 11.441406 18.019531 C 11.785156 18.285156 12.144531 18.539062 12.527344 18.777344 Z M 12.527344 18.777344 " fill-opacity="1" fill-rule="nonzero"/><path fill="#ba855a" d="M 71.96875 45.964844 L 64.597656 17.101562 C 65.703125 15.980469 66.40625 14.710938 66.40625 13.5 C 66.40625 12.242188 65.382812 11.21875 64.128906 11.21875 C 62.871094 11.21875 61.847656 12.242188 61.847656 13.5 C 61.847656 14.316406 62.285156 15.078125 62.996094 15.480469 C 63.289062 15.652344 63.394531 16.027344 63.222656 16.320312 C 63.054688 16.617188 62.679688 16.71875 62.386719 16.550781 C 62.050781 16.355469 61.757812 16.109375 61.507812 15.828125 C 60.785156 16.503906 59.316406 17.429688 56.664062 17.429688 C 54.363281 17.429688 52.472656 16.414062 50.640625 15.429688 C 49.328125 14.726562 48.089844 14.058594 46.808594 13.839844 C 44.355469 13.421875 41.613281 14.238281 40.699219 14.546875 L 40.699219 19.523438 C 41.84375 18.828125 43.832031 17.859375 46.019531 17.925781 C 47.507812 17.972656 48.90625 18.515625 50.382812 19.085938 C 52.242188 19.804688 54.164062 20.550781 56.664062 20.550781 C 57.191406 20.550781 57.730469 20.496094 58.269531 20.402344 L 51.738281 45.964844 L 48.742188 45.964844 C 49.226562 50.441406 54.921875 53.984375 61.855469 53.984375 C 68.785156 53.984375 74.484375 50.441406 74.964844 45.964844 Z M 63.554688 18.019531 L 70.691406 45.964844 L 62.46875 45.964844 L 62.46875 18.777344 C 62.851562 18.539062 63.210938 18.285156 63.554688 18.019531 Z M 61.238281 19.433594 L 61.238281 45.964844 L 53.015625 45.964844 L 59.632812 20.0625 C 60.179688 19.890625 60.71875 19.679688 61.238281 19.433594 Z M 61.238281 19.433594 " fill-opacity="1" fill-rule="nonzero"/></svg>